<?xml version="1.0" encoding="iso-8859-1"?>
<!-- Generator: Adobe Illustrator 19.0.0, SVG Export Plug-In . SVG Version: 6.00 Build 0)  -->
<svg xmlns="http://www.w3.org/2000/svg" xmlns:xlink="http://www.w3.org/1999/xlink" version="1.1" id="Layer_1" x="0px" y="0px" viewBox="0 0 394.975 394.975" style="enable-background:new 0 0 394.975 394.975;" xml:space="preserve" width="512" height="512">
<g>
	<path style="fill:#997668;" d="M20.93,193.776v135.645c0,16.457,13.466,29.923,29.923,29.923h293.271   c16.457,0,29.921-13.466,29.921-29.923V193.776H20.93z"/>
	<path style="fill:#65513C;" d="M374.045,193.776h-21.197l-3.401,3.401l-3.401-3.401h-21.216l14.01,14.009l-19.785,19.784   l-19.784-19.784l14.009-14.009h-21.215l-3.401,3.401l-3.401-3.401h-21.214l14.008,14.009l-19.784,19.784l-19.784-19.785   l14.008-14.008h-21.215l-3.4,3.4l-3.4-3.4h-21.215l14.008,14.008l-19.784,19.784l-19.784-19.784l14.008-14.008h-21.215l-3.4,3.4   l-3.4-3.4H142.48l14.008,14.008l-19.784,19.785l-19.785-19.785l14.009-14.008h-21.216l-3.4,3.4l-3.4-3.4H81.696l14.008,14.008   L75.92,227.569l-19.784-19.784l14.01-14.009H48.93l-3.401,3.401l-3.401-3.401H20.93v0.017l13.991,13.992L20.93,221.776v32.801   l13.991,13.991L20.93,282.559v32.801l13.991,13.991l-11.646,11.646c2.007,4.743,5.209,8.865,9.218,11.998l13.036-13.037   l19.386,19.385h22.014l19.384-19.385l19.386,19.385h22.014l19.385-19.385l19.384,19.385h22.016l19.384-19.385l19.385,19.385h22.014   l19.386-19.385l19.384,19.385h22.014l19.386-19.385l13.037,13.037c4.008-3.133,7.21-7.255,9.217-11.997l-11.646-11.647   l13.991-13.991v-32.801l-13.991-13.991l13.991-13.991v-32.801l-13.991-13.991l13.991-13.992V193.776z M338.839,268.568   l-19.785,19.784l-19.783-19.784l19.783-19.784L338.839,268.568z M288.662,218.392l19.784,19.784l-19.783,19.784l-19.785-19.784   L288.662,218.392z M278.056,268.568l-19.785,19.784l-19.784-19.784l19.784-19.784L278.056,268.568z M227.879,218.391l19.784,19.785   l-19.784,19.784l-19.784-19.785L227.879,218.391z M217.271,268.568l-19.784,19.784l-19.784-19.784l19.784-19.785L217.271,268.568z    M167.096,218.391l19.784,19.784l-19.784,19.785l-19.784-19.784L167.096,218.391z M156.488,268.568l-19.784,19.784l-19.785-19.784   l19.785-19.784L156.488,268.568z M106.312,218.391l19.785,19.785l-19.785,19.784l-19.784-19.784L106.312,218.391z M95.704,268.568   l-19.783,19.784l-19.785-19.784l19.784-19.784L95.704,268.568z M25.744,238.177l19.784-19.784l19.784,19.784l-19.784,19.784   L25.744,238.177z M25.744,298.96l19.784-19.784l19.785,19.784l-19.785,19.784L25.744,298.96z M75.921,349.136l-19.785-19.784   l19.785-19.784l19.783,19.784L75.921,349.136z M86.528,298.96l19.783-19.784l19.785,19.784l-19.785,19.784L86.528,298.96z    M136.704,349.136l-19.785-19.784l19.785-19.784l19.784,19.784L136.704,349.136z M147.311,298.96l19.784-19.784l19.784,19.784   l-19.784,19.784L147.311,298.96z M197.487,349.137l-19.784-19.785l19.784-19.784l19.784,19.784L197.487,349.137z M208.095,298.96   l19.784-19.784l19.784,19.784l-19.784,19.784L208.095,298.96z M258.271,349.136l-19.784-19.784l19.784-19.784l19.785,19.784   L258.271,349.136z M268.878,298.96l19.785-19.784l19.783,19.784l-19.783,19.784L268.878,298.96z M319.054,349.136l-19.783-19.784   l19.783-19.784l19.785,19.784L319.054,349.136z M369.23,298.96l-19.784,19.784l-19.785-19.784l19.785-19.784L369.23,298.96z    M369.23,238.177l-19.784,19.784l-19.785-19.784l19.785-19.784L369.23,238.177z"/>
	<path style="opacity:0.3;fill:#222222;" d="M20.93,193.776v135.645c0,16.457,13.466,29.923,29.923,29.923h146.635V193.776H20.93z"/>
	<path style="fill:#65513C;" d="M394.975,158.205c0-7.406-6.059-13.465-13.466-13.465H13.463C6.059,144.74,0,150.799,0,158.205   v23.21c0,7.405,6.059,13.465,13.463,13.465h368.046c7.407,0,13.466-6.06,13.466-13.465V158.205z"/>
	<rect x="20.93" y="193.776" style="opacity:0.3;fill:#222222;" width="353.115" height="21.49"/>
	<path style="opacity:0.2;fill:#222222;" d="M13.463,144.74C6.059,144.74,0,150.799,0,158.205v23.21   c0,7.405,6.059,13.465,13.463,13.465h184.024v-50.14H13.463z"/>
	<g>
		<polygon style="fill:#FF5959;" points="167.386,144.762 137.278,174.868 107.174,144.762   "/>
		<polygon style="fill:#FFFFFF;" points="197.487,174.868 167.386,204.971 137.278,174.868 167.386,144.762   "/>
		<polygon style="fill:#FF5959;" points="227.594,144.762 197.487,174.868 167.386,144.762   "/>
		<polygon style="fill:#FF5959;" points="287.805,144.762 257.698,174.868 227.594,144.762   "/>
		
			<rect x="206.304" y="153.58" transform="matrix(-0.7071 0.7071 -0.7071 -0.7071 512.1754 137.5856)" style="fill:#FFFFFF;" width="42.577" height="42.576"/>
		
			<rect x="176.204" y="183.683" transform="matrix(-0.7071 0.7071 -0.7071 -0.7071 482.0721 210.256)" style="fill:#FF5959;" width="42.571" height="42.574"/>
		<polygon style="opacity:0.3;fill:#222222;" points="197.487,235.078 197.487,144.762 107.174,144.762   "/>
	</g>
	<g>
		<path style="fill:#997668;" d="M115.86,171.841c-1.752,2.786-5.465,3.63-8.252,1.878l-17.727-11.155    c-2.787-1.752-3.633-5.467-1.881-8.253l72.921-115.888c1.752-2.786,5.467-3.63,8.252-1.878l17.729,11.156    c2.785,1.751,3.63,5.465,1.879,8.252L115.86,171.841z"/>
		<circle style="fill:#A4A9AD;" cx="106.987" cy="155.039" r="5.72"/>
		<path style="opacity:0.3;fill:#222222;" d="M186.902,47.701l-8.864-5.579L98.744,168.14l8.864,5.578    c2.787,1.752,6.5,0.908,8.252-1.878l72.921-115.888C190.532,53.166,189.688,49.452,186.902,47.701z"/>
	</g>
	<g>
		<path style="fill:#997668;" d="M279.114,171.841c1.752,2.786,5.467,3.63,8.252,1.878l17.728-11.155    c2.787-1.752,3.63-5.467,1.879-8.253L234.055,38.423c-1.751-2.786-5.467-3.63-8.254-1.878l-17.727,11.156    c-2.787,1.751-3.632,5.465-1.881,8.252L279.114,171.841z"/>
		<circle style="fill:#A4A9AD;" cx="287.989" cy="155.039" r="5.719"/>
		<path style="opacity:0.3;fill:#222222;" d="M208.074,47.701l8.864-5.579L296.23,168.14l-8.864,5.578    c-2.785,1.752-6.5,0.908-8.252-1.878L206.193,55.953C204.442,53.166,205.287,49.452,208.074,47.701z"/>
	</g>
</g>















</svg>
