<svg height="512" viewBox="0 0 128 128" width="512" xmlns="http://www.w3.org/2000/svg"><g><g><path d="m57.972 84.018-36.6-33.012h85.25l-36.6 33.012a9 9 0 0 1 -12.05 0z" fill="#ffe671"/><path d="m92.626 63.633-22.6 20.385a9 9 0 0 1 -12.056 0l-22.6-20.385h-24.12l8.39 41.6a10 10 0 0 0 9.8 8.023h69.117a10 10 0 0 0 9.8-8.023l8.39-41.6z" fill="#bc8871"/><g fill="#6d4c41"><path d="m21.375 51.006h-16.625a3 3 0 0 0 -3 3v6.627a3 3 0 0 0 3 3h30.624z"/><path d="m106.625 51.006-14 12.627h30.625a3 3 0 0 0 3-3v-6.627a3 3 0 0 0 -3-3z"/></g><path d="m111.625 51.006h-10v-15.264c0-6.066-4.2-11-9.357-11h-56.536c-5.16 0-9.357 4.934-9.357 11v15.264h-10v-15.264c0-11.58 8.684-21 19.357-21h56.536c10.673 0 19.357 9.42 19.357 21z" fill="#edf1d3"/><path d="m51.5 14.742h25v10h-25z" fill="#77bc4d"/><g fill="#6d4c41"><path d="m27.25 75.385a1.749 1.749 0 0 0 -1.75-1.75h-11.88a1.713 1.713 0 0 0 -.346.035l.7 3.465h11.526a1.75 1.75 0 0 0 1.75-1.75z"/><path d="m28.87 86.259h11.88a1.75 1.75 0 0 0 0-3.5h-11.88a1.75 1.75 0 0 0 0 3.5z"/><path d="m58.25 94.258a1.75 1.75 0 0 0 -1.75-1.75h-11.88a1.75 1.75 0 1 0 0 3.5h11.88a1.75 1.75 0 0 0 1.75-1.75z"/><path d="m35.5 93.384a1.749 1.749 0 0 0 -1.75-1.75h-6.13a1.75 1.75 0 0 0 0 3.5h6.13a1.75 1.75 0 0 0 1.75-1.75z"/><path d="m41.314 101.634h-11.88a1.75 1.75 0 0 0 0 3.5h11.88a1.75 1.75 0 1 0 0-3.5z"/><path d="m114.38 73.635h-11.88a1.75 1.75 0 0 0 0 3.5h11.527l.7-3.465a1.721 1.721 0 0 0 -.347-.035z"/><path d="m87.25 86.258h11.88a1.75 1.75 0 0 0 0-3.5h-11.88a1.75 1.75 0 0 0 0 3.5z"/><path d="m83.38 92.508h-11.88a1.75 1.75 0 0 0 0 3.5h11.88a1.75 1.75 0 0 0 0-3.5z"/><path d="m69.94 101.633h-11.88a1.75 1.75 0 0 0 0 3.5h11.88a1.75 1.75 0 0 0 0-3.5z"/><path d="m100.38 91.633h-6.13a1.75 1.75 0 0 0 0 3.5h6.13a1.75 1.75 0 0 0 0-3.5z"/><path d="m98.566 101.633h-11.881a1.75 1.75 0 0 0 0 3.5h11.881a1.75 1.75 0 0 0 0-3.5z"/></g></g><g><path d="m58.25 49.256h-6.25a1.75 1.75 0 0 0 0 3.5h6.25a1.75 1.75 0 0 0 0-3.5z"/><path d="m123.25 49.256h-9.875v-13.515c0-12.544-9.469-22.75-21.107-22.75h-56.536c-11.638 0-21.107 10.206-21.107 22.75v13.515h-9.875a4.756 4.756 0 0 0 -4.75 4.75v6.628a4.756 4.756 0 0 0 4.75 4.75h5.067l8.107 40.2a11.786 11.786 0 0 0 11.518 9.427h69.116a1.75 1.75 0 0 0 0-3.5h-69.116a8.275 8.275 0 0 1 -8.087-6.62l-5.6-27.754h9.745a1.75 1.75 0 0 0 0-3.5h-10.448l-1.664-8.251h21.312l22.1 19.931a10.719 10.719 0 0 0 7.2 2.783c.24 0 .48-.016.72-.032a10.712 10.712 0 0 0 6.48-2.746l22.1-19.938h21.313l-1.664 8.251h-10.449a1.75 1.75 0 0 0 0 3.5h9.742l-4.871 24.153a1.751 1.751 0 0 0 3.432.692l7.38-36.6h5.067a4.756 4.756 0 0 0 4.75-4.75v-6.624a4.756 4.756 0 0 0 -4.75-4.75zm-13.375-13.515v13.515h-6.5v-13.515c0-7.03-4.982-12.75-11.107-12.75h-14.018v-6.5h14.018c9.709 0 17.607 8.636 17.607 19.25zm-83.947 17.015h13.2a1.75 1.75 0 0 0 0-3.5h-11v-13.515c0-5.1 3.413-9.25 7.607-9.25h56.533c4.194 0 7.607 4.15 7.607 9.25v13.515h-28.75a1.75 1.75 0 0 0 0 3.5h30.947l-33.216 29.963a7.231 7.231 0 0 1 -9.712 0zm48.822-36.265v6.5h-21.5v-6.5zm-56.625 19.25c0-10.614 7.9-19.25 17.607-19.25h14.018v6.5h-14.018c-6.125 0-11.107 5.72-11.107 12.75v13.515h-6.5zm-6.875 26.143h-6.5a1.251 1.251 0 0 1 -1.25-1.25v-6.628a1.25 1.25 0 0 1 1.25-1.25h15.95l10.119 9.128zm113.25-1.25a1.252 1.252 0 0 1 -1.25 1.25h-26.071l10.121-9.128h15.95a1.251 1.251 0 0 1 1.25 1.25z"/><path d="m28.87 86.259h11.88a1.75 1.75 0 0 0 0-3.5h-11.88a1.75 1.75 0 0 0 0 3.5z"/><path d="m44.62 96.008h11.88a1.75 1.75 0 0 0 0-3.5h-11.88a1.75 1.75 0 1 0 0 3.5z"/><path d="m25.87 93.384a1.75 1.75 0 0 0 1.75 1.75h6.13a1.75 1.75 0 0 0 0-3.5h-6.13a1.749 1.749 0 0 0 -1.75 1.75z"/><path d="m29.434 105.134h11.88a1.75 1.75 0 1 0 0-3.5h-11.88a1.75 1.75 0 0 0 0 3.5z"/><path d="m99.13 86.258a1.75 1.75 0 0 0 0-3.5h-11.88a1.75 1.75 0 0 0 0 3.5z"/><path d="m85.13 94.258a1.75 1.75 0 0 0 -1.75-1.75h-11.88a1.75 1.75 0 0 0 0 3.5h11.88a1.75 1.75 0 0 0 1.75-1.75z"/><path d="m58.06 105.134h11.88a1.75 1.75 0 0 0 0-3.5h-11.88a1.75 1.75 0 0 0 0 3.5z"/><path d="m100.38 91.633h-6.13a1.75 1.75 0 0 0 0 3.5h6.13a1.75 1.75 0 0 0 0-3.5z"/><path d="m86.685 105.133h11.881a1.75 1.75 0 0 0 0-3.5h-11.881a1.75 1.75 0 0 0 0 3.5z"/></g></g></svg>